<?xml version="1.0"?>
<svg xmlns="http://www.w3.org/2000/svg" xmlns:xlink="http://www.w3.org/1999/xlink" xmlns:svgjs="http://svgjs.com/svgjs" version="1.1" width="512" height="512" x="0" y="0" viewBox="0 0 512 512" style="enable-background:new 0 0 512 512" xml:space="preserve" class=""><g>
<g xmlns="http://www.w3.org/2000/svg">
	<g>
		<path style="" d="M362,70H30c-11.05,0-20,8.95-20,20v392c0,11.05,8.95,20,20,20h332c11.05,0,20-8.95,20-20V90    C382,78.95,373.05,70,362,70z" fill="#ffffff" data-original="#ffffff" class=""/>
		<path style="" d="M502,436v46c0,11.05-8.95,20-20,20h-20c-11.05,0-20-8.95-20-20v-46H502z" fill="#ffffff" data-original="#697c86" class=""/>
		<path style="" d="M502,179.26V436h-60V179.26c0-9.68,0.87-19.31,2.59-28.79c0.03-0.16,0.06-0.31,0.09-0.47h54.64    C501.1,159.63,502,169.42,502,179.26z" fill="#e1fffb" data-original="#ff765b" class=""/>
		<path style="" d="M499.32,150h-54.64c1.72-9.32,4.26-18.49,7.59-27.4L472,70c0.927,2.471-4.97-13.25,19.73,52.6    C495.06,131.51,497.6,140.68,499.32,150z" fill="#ffffff" data-original="#ffcaaf" class=""/>
		<path style="" d="M302,90H90c0-13.99,0-26.01,0-40h57c4.63-22.82,24.81-40,49-40s44.37,17.18,49,40h57    C302,63.99,302,76.01,302,90z" fill="#e1fffb" data-original="#ff765b" class=""/>
		<path style="" d="M90,376c11.05,0,20,8.95,20,20s-8.95,20-20,20s-20-8.95-20-20S78.95,376,90,376z" fill="#ffffff" data-original="#63d9b8" class=""/>
	</g>
	<g>
		<path d="M292,216c0,5.52,4.48,10,10,10s10-4.48,10-10s-4.48-10-10-10S292,210.48,292,216z" fill="#4d774e" data-original="#000000" style="" class=""/>
		<path d="M30,512h332c16.542,0,30-13.458,30-30V90c0-16.542-13.458-30-30-30h-50V50c0-5.522-4.478-10-10-10h-49.417    C244.232,16.398,221.618,0,196,0s-48.232,16.398-56.583,40H90c-5.522,0-10,4.478-10,10v10H30C13.458,60,0,73.458,0,90v392    C0,498.542,13.458,512,30,512z M100,60h47c4.757,0,8.854-3.351,9.801-8.012C160.561,33.453,177.047,20,196,20    s35.439,13.453,39.199,31.988C236.146,56.649,240.243,60,245,60h47v20H100V60z M20,90c0-5.514,4.486-10,10-10h50v10    c0,5.522,4.478,10,10,10h212c5.522,0,10-4.478,10-10V80h50c5.514,0,10,4.486,10,10v392c0,5.514-4.486,10-10,10H30    c-5.514,0-10-4.486-10-10V90z" fill="#4d774e" data-original="#000000" style="" class=""/>
		<path d="M82.929,223.071C84.882,225.023,87.44,226,90,226s5.118-0.977,7.071-2.929l40-40c3.905-3.905,3.905-10.237,0-14.143    c-3.906-3.904-10.236-3.904-14.143,0L90,201.857l-12.929-12.929c-3.906-3.904-10.236-3.904-14.143,0    c-3.905,3.905-3.905,10.237,0,14.143L82.929,223.071z" fill="#4d774e" data-original="#000000" style="" class=""/>
		<path d="M82.929,323.071C84.882,325.023,87.44,326,90,326s5.118-0.977,7.071-2.929l40-40c3.905-3.905,3.905-10.237,0-14.143    c-3.906-3.904-10.236-3.904-14.143,0L90,301.857l-12.929-12.929c-3.906-3.904-10.236-3.904-14.143,0    c-3.905,3.905-3.905,10.237,0,14.143L82.929,323.071z" fill="#4d774e" data-original="#000000" style="" class=""/>
		<path d="M90,366c-16.542,0-30,13.458-30,30s13.458,30,30,30s30-13.458,30-30S106.542,366,90,366z M90,406c-5.514,0-10-4.486-10-10    s4.486-10,10-10s10,4.486,10,10S95.514,406,90,406z" fill="#4d774e" data-original="#000000" style="" class=""/>
		<path d="M196,186h126c5.522,0,10-4.478,10-10s-4.478-10-10-10H196c-5.522,0-10,4.478-10,10S190.478,186,196,186z" fill="#4d774e" data-original="#000000" style="" class=""/>
		<path d="M196,226h66c5.522,0,10-4.478,10-10s-4.478-10-10-10h-66c-5.522,0-10,4.478-10,10S190.478,226,196,226z" fill="#4d774e" data-original="#000000" style="" class=""/>
		<path d="M196,286h126c5.522,0,10-4.478,10-10s-4.478-10-10-10H196c-5.522,0-10,4.478-10,10S190.478,286,196,286z" fill="#4d774e" data-original="#000000" style="" class=""/>
		<path d="M196,326h86c5.522,0,10-4.478,10-10s-4.478-10-10-10h-86c-5.522,0-10,4.478-10,10S190.478,326,196,326z" fill="#4d774e" data-original="#000000" style="" class=""/>
		<path d="M196,386h126c5.522,0,10-4.478,10-10s-4.478-10-10-10H196c-5.522,0-10,4.478-10,10S190.478,386,196,386z" fill="#4d774e" data-original="#000000" style="" class=""/>
		<path d="M196,426h86c5.522,0,10-4.478,10-10s-4.478-10-10-10h-86c-5.522,0-10,4.478-10,10S190.478,426,196,426z" fill="#4d774e" data-original="#000000" style="" class=""/>
		<path d="M501.078,119.046l-19.715-52.557C479.9,62.586,476.169,60,472.001,60C472,60,472,60,472,60    c-4.168,0-7.899,2.585-9.363,6.488L442.902,119.1C435.837,138.007,432,158.339,432,179.26V482c0,16.542,13.458,30,30,30h20    c16.542,0,30-13.458,30-30V179.26C512,158.435,508.195,138.093,501.078,119.046z M452,179.26c0-6.433,0.422-12.891,1.238-19.26    h37.518c0.82,6.386,1.243,12.834,1.243,19.26V426h-40V179.26z M471.998,98.478c1.06,2.824-3.839-10.231,10.365,27.622    c1.701,4.553,3.179,9.201,4.441,13.9h-29.608c1.261-4.698,2.738-9.342,4.437-13.889L471.998,98.478z M482,492h-20    c-5.514,0-10-4.486-10-10v-36h40v36C492,487.514,487.514,492,482,492z" fill="#4d774e" data-original="#000000" style="" class=""/>
	</g>
</g>















</g></svg>
