<?xml version="1.0"?>
<svg xmlns="http://www.w3.org/2000/svg" xmlns:xlink="http://www.w3.org/1999/xlink" xmlns:svgjs="http://svgjs.com/svgjs" version="1.1" width="512" height="512" x="0" y="0" viewBox="0 0 512 512" style="enable-background:new 0 0 512 512" xml:space="preserve" class=""><g><g xmlns="http://www.w3.org/2000/svg"><g><path d="m299.554 512c-45.77 0-89.362-14.327-126.064-41.433l-12.06-8.906 123.124-166.902v-207.653h15c117.143 0 212.446 95.303 212.446 212.447s-95.303 212.447-212.446 212.447zm-95.822-57.147c28.727 17.803 61.562 27.147 95.822 27.147 100.601 0 182.446-81.846 182.446-182.447 0-95.554-73.831-174.186-167.446-181.836v186.911z" fill="#4d774e" data-original="#000000" style="" class=""/></g><g><path d="m98.457 448.65-12.072-8.911c-26.202-19.341-47.929-44.826-62.833-73.7-15.408-29.852-23.552-63.503-23.552-97.315 0-50.922 18.29-100.171 51.5-138.674l9.796-11.358 171.473 147.892zm-33.568-287.243c-22.59 31.043-34.889 68.616-34.889 107.317 0 52.654 23.119 103.003 62.5 137.466l99.625-135.046z" fill="#4d774e" data-original="#000000" style="" class=""/></g><g><path d="m239.41 209.784-158.831-136.987 9.794-11.358c33.668-39.045 82.522-61.439 134.037-61.439h15zm-115.944-139.615 85.944 74.125v-113.528c-32.204 3.297-62.405 17.143-85.944 39.403z" fill="#4d774e" data-original="#000000" style="" class=""/></g></g></g></svg>
