<?xml version="1.0"?>
<svg xmlns="http://www.w3.org/2000/svg" xmlns:xlink="http://www.w3.org/1999/xlink" xmlns:svgjs="http://svgjs.com/svgjs" version="1.1" width="512" height="512" x="0" y="0" viewBox="0 0 512 512" style="enable-background:new 0 0 512 512" xml:space="preserve" class=""><g><g xmlns="http://www.w3.org/2000/svg"><path d="m115.331 462.423c-.032 0-.064 0-.096.001-6.221.077-12.814.13-18.352.143 3.513-4.706 8.341-11.313 14.803-20.548 4.128-5.899 7.38-11.766 8.067-17.177 1.855-14.614-8.758-27.213-23.423-27.213-11.347 0-21.167 8.072-23.352 19.193-.798 4.064 1.85 8.007 5.914 8.805 4.065.791 8.006-1.85 8.805-5.914.806-4.104 4.437-7.084 8.633-7.084 5.336 0 9.883 4.826 8.596 9.9-.789 3.111-2.648 6.771-5.529 10.888-10.087 14.413-16.105 22.293-19.338 26.526-4.049 5.302-5.897 7.722-4.624 11.862.75 2.438 2.596 4.309 5.064 5.132.988.329 1.937.646 14.443.646 4.857 0 11.458-.048 20.48-.161 4.142-.052 7.457-3.451 7.405-7.593-.051-4.11-3.398-7.406-7.496-7.406zm147.476-79.171h-13.614c-4.142 0-7.5 3.357-7.5 7.5s3.358 7.5 7.5 7.5h6.114v56.194c0 4.143 3.358 7.5 7.5 7.5s7.5-3.357 7.5-7.5v-63.694c0-4.143-3.358-7.5-7.5-7.5zm241.693 113.748h-7.5v-96.248c0-15.163-12.336-27.5-27.5-27.5h-110.667c-4.5 0-8.747 1.093-12.5 3.018v-30.571c0-15.163-12.336-27.5-27.5-27.5h-4.353l-14.095-123.389 14.698-64.75 12.042-5.014c7.767-3.225 14.772-8.299 20.256-14.671l36.274-42.105c3.323-3.865 5.153-8.79 5.153-13.87 0-20.068-24.469-28.229-37.067-14.215l-34.127 37.957c-1.388 1.542-3.183 2.653-5.184 3.212l-31.541 8.769v-7.279c8.319-7.068 13.612-17.596 13.612-29.342v-15c.001-21.231-17.271-38.502-38.501-38.502s-38.502 17.271-38.502 38.502v15c0 11.746 5.293 22.273 13.612 29.342v7.279l-31.534-8.767c-2.008-.561-3.804-1.672-5.188-3.211l-34.129-37.959c-5.935-6.602-15.126-8.814-23.417-5.637-13.622 5.222-18.059 22.587-8.494 33.726l9.518 11.047c2.703 3.138 7.438 3.491 10.578.786 3.138-2.703 3.49-7.438.787-10.577l-9.501-11.028c-3.377-3.642.098-9.034 2.483-9.947.941-.36 4.224-1.311 6.892 1.659l34.132 37.963c3.296 3.662 7.553 6.299 12.316 7.628l34.725 9.655c3.756 1.036 7.762.29 10.908-2.105 4.079-3.106 5.284-7.684 4.926-12.645 3.158.84 6.471 1.294 9.89 1.294s6.732-.454 9.89-1.294c-.448 4.812.989 9.648 4.926 12.645 3.133 2.385 7.109 3.153 10.923 2.101l34.717-9.652c4.756-1.327 9.012-3.964 12.311-7.629l34.13-37.96c3.439-3.812 10.913-2.241 10.913 4.186 0 1.492-.542 2.944-1.522 4.084l-36.272 42.104c-3.965 4.607-9.028 8.275-14.648 10.608l-13.382 5.571c-4.358 1.815-7.278 5.875-7.654 10.52l-13.53 59.603h-61.604l-13.53-59.603c-.376-4.645-3.296-8.704-7.656-10.521l-13.387-5.573c-5.613-2.33-10.676-5.998-14.644-10.607l-4.11-4.771c-2.703-3.139-7.439-3.491-10.577-.788-3.139 2.703-3.491 7.438-.788 10.577l4.108 4.77c5.486 6.375 12.492 11.449 20.252 14.671l12.049 5.017 14.698 64.75-14.095 123.384h-4.353c-15.164 0-27.5 12.337-27.5 27.5v20.518c-3.753-1.924-8-3.018-12.5-3.018h-110.667c-15.164 0-27.5 12.337-27.5 27.5v106.302h-7.5c-4.142 0-7.5 3.357-7.5 7.5s3.358 7.5 7.5 7.5h497c4.142 0 7.5-3.357 7.5-7.5s-3.358-7.5-7.5-7.5zm-248.5-482c10.337 0 19.13 6.711 22.268 16.002h-44.536c3.138-9.291 11.931-16.002 22.268-16.002zm23.502 38.502c0 12.96-10.543 23.503-23.502 23.503s-23.502-10.543-23.502-23.503v-7.5h47.005v7.5zm-113.835 443.498h-135.667v-106.302c0-6.893 5.607-12.5 12.5-12.5h110.667c6.893 0 12.5 5.607 12.5 12.5zm133.715-178.802h-10.844l-12.57-40.838h18.749zm-73.478-116.308h60.193l6.908 60.471h-21.653l-4.405-14.31c-.026-.086-.054-.171-.083-.256-1.631-4.693-5.895-7.726-10.863-7.726s-9.232 3.032-10.863 7.726c-.029.085-.057.17-.083.256l-4.405 14.31h-21.653zm46.94 116.308h-33.689l16.845-54.722zm-55.561-40.838h18.749l-12.57 40.838h-10.844zm264.717 219.64h-135.667v-23.075c0-4.143-3.358-7.5-7.5-7.5s-7.5 3.357-7.5 7.5v23.075h-150.666v-151.302c0-6.893 5.607-12.5 12.5-12.5h125.667c6.893 0 12.5 5.607 12.5 12.5v93.227c0 4.143 3.358 7.5 7.5 7.5s7.5-3.357 7.5-7.5v-38.173c0-6.893 5.607-12.5 12.5-12.5h110.666c6.893 0 12.5 5.607 12.5 12.5zm-67.833-94.471c-11.346 0-21.167 8.072-23.352 19.194-.798 4.064 1.85 8.007 5.914 8.805 4.066.798 8.006-1.85 8.805-5.914.806-4.105 4.437-7.085 8.633-7.085 4.852 0 8.798 3.946 8.798 8.798s-3.947 8.799-8.798 8.799c-4.142 0-7.5 3.357-7.5 7.5s3.358 7.5 7.5 7.5c4.852 0 8.798 3.946 8.798 8.798s-3.947 8.799-8.798 8.799c-4.365 0-8.111-3.251-8.713-7.564-.634-4.545-1.995-8.734-7.585-8.734-6.097 0-7.983 5.708-7.271 10.811 1.63 11.68 11.763 20.488 23.569 20.488 13.123 0 23.798-10.676 23.798-23.799 0-6.302-2.467-12.036-6.481-16.298 4.013-4.262 6.481-9.996 6.481-16.299 0-13.123-10.676-23.799-23.798-23.799z" fill="#4d774e" data-original="#000000" style="" class=""/></g></g></svg>
